<svg xmlns="http://www.w3.org/2000/svg" fill="none" viewBox="0 0 24 24">
  <path fill="#000"
    d="M21.429 18.643a2.786 2.786 0 0 1-2.786 2.785H5.357a2.786 2.786 0 0 1-2.785-2.785V5.357a2.786 2.786 0 0 1 2.785-2.786h13.286a2.786 2.786 0 0 1 2.786 2.786v13.286Zm-1.286 0V5.357a1.5 1.5 0 0 0-1.5-1.5H5.357a1.5 1.5 0 0 0-1.5 1.5v13.286a1.5 1.5 0 0 0 1.5 1.5h13.286a1.5 1.5 0 0 0 1.5-1.5ZM16.929 12a.643.643 0 0 1-.556.637l-.087.006H7.714a.643.643 0 0 1-.087-1.28l.087-.006h8.572a.643.643 0 0 1 .643.643Zm0 4.5a.643.643 0 0 1-.556.637l-.087.006H7.714a.643.643 0 0 1-.087-1.28l.087-.006h8.572a.643.643 0 0 1 .643.643Zm0-9a.643.643 0 0 1-.556.637l-.087.006H7.714a.643.643 0 0 1-.087-1.28l.087-.006h8.572a.643.643 0 0 1 .643.643Z" />
</svg>