<svg xmlns="http://www.w3.org/2000/svg" fill="none" viewBox="0 0 25 24">
  <mask id="a" width="25" height="24" x="0" y="0" maskUnits="userSpaceOnUse"
    style="mask-type:luminance">
    <path fill="#fff"
      d="M12.334 22.91a10.875 10.875 0 0 0 7.714-3.196A10.873 10.873 0 0 0 23.243 12a10.875 10.875 0 0 0-3.195-7.714 10.875 10.875 0 0 0-7.714-3.195A10.875 10.875 0 0 0 4.62 4.286 10.875 10.875 0 0 0 1.425 12a10.875 10.875 0 0 0 3.195 7.714 10.875 10.875 0 0 0 7.714 3.195Z" />
    <path fill="#fff" fill-rule="evenodd"
      d="M12.334 0a11.966 11.966 0 0 1 8.485 3.515A11.967 11.967 0 0 1 24.334 12a11.967 11.967 0 0 1-3.515 8.485A11.966 11.966 0 0 1 12.334 24a11.966 11.966 0 0 1-8.485-3.515A11.966 11.966 0 0 1 .334 12a11.966 11.966 0 0 1 3.515-8.485A11.966 11.966 0 0 1 12.334 0Zm3.758 2.927a9.784 9.784 0 0 0-3.757-.745h-.002a9.785 9.785 0 0 0-6.94 2.875l-.002.002a9.784 9.784 0 0 0-2.875 6.94V12a9.784 9.784 0 0 0 2.875 6.94l.002.002a9.785 9.785 0 0 0 6.94 2.875h.002a9.782 9.782 0 0 0 6.94-2.875l.002-.002a9.784 9.784 0 0 0 2.875-6.94V12a9.784 9.784 0 0 0-2.875-6.94l-.002-.002a9.784 9.784 0 0 0-3.183-2.13Z"
      clip-rule="evenodd" />
    <path fill="#000" fill-rule="evenodd"
      d="M12.334 19.09a1.364 1.364 0 1 0 0-2.727 1.364 1.364 0 0 0 0 2.728ZM12.334 4.364c.603 0 1.091.488 1.091 1.09v8.728a1.09 1.09 0 1 1-2.182 0V5.455c0-.603.489-1.091 1.091-1.091Z"
      clip-rule="evenodd" />
  </mask>
  <g mask="url(#a)">
    <path fill="#CE1436" d="M-.757-1.09h26.182v26.18H-.757V-1.09Z" />
  </g>
</svg>