<svg xmlns="http://www.w3.org/2000/svg" fill="none" viewBox="0 0 215 41">
  <path fill="#fff" fill-rule="evenodd"
    d="M105.392 31.828h4.31l1.81-3.69h10.43l1.81 3.69h4.31l-11.335-23.77-11.335 23.77Zm14.55-7.715h-6.572l3.238-6.782 3.334 6.782ZM54.244 19.536a6.652 6.652 0 0 0 1.31-4.002c0-3.714-2.977-6.709-6.668-6.709H38.171v23.003h11.906c3.762 0 6.81-3.067 6.81-6.853 0-2.229-1.024-4.193-2.643-5.44Zm-5.358-6.542a2.533 2.533 0 0 1 2.524 2.54 2.533 2.533 0 0 1-2.524 2.54h-6.405l-.024-5.104 6.43.024Zm-6.405 14.689h7.596c1.477 0 2.691-1.223 2.691-2.708 0-1.486-1.214-2.708-2.69-2.708H42.48v5.416ZM59.292 20.327c0-6.398 5.143-11.573 11.501-11.573s11.501 5.176 11.501 11.573c0 6.398-5.143 11.573-11.5 11.573-6.359 0-11.502-5.175-11.502-11.573Zm4.334 0c0 3.977 3.215 7.212 7.167 7.212 3.977 0 7.168-3.235 7.168-7.212 0-3.978-3.215-7.212-7.168-7.212-3.952 0-7.167 3.234-7.167 7.212ZM103.154 16.517a7.71 7.71 0 0 1-4.763 7.116l5.572 8.195h-5l-5.334-7.644h-3.906v7.644H85.58V8.825h9.93c4.215 0 7.644 3.45 7.644 7.692Zm-13.43 3.498h5.786c1.929 0 3.477-1.581 3.477-3.498a3.476 3.476 0 0 0-3.477-3.498h-5.786v6.996Z"
    clip-rule="evenodd" />
  <path fill="#fff"
    d="M28.536 18.107a.289.289 0 0 0-.104-.105l-9.24-5.368a.284.284 0 0 0-.285 0l-6.093 3.54-2.86 1.662a.288.288 0 0 0 0 .498l3.183 1.85 5.913 3.434v10.57c0 .22.238.359.428.248l8.953-5.201a.288.288 0 0 0 .143-.25V18.25c0-.05-.013-.1-.038-.143ZM9.525 18.085V.463a.286.286 0 0 0-.429-.25L.143 5.416a.288.288 0 0 0-.143.25V34.52c0 .051.014.1.038.143l9.487-5.51V18.084Z" />
  <path fill="#fff"
    d="m18.621 34.437-9.096-5.285-9.487 5.512c.025.043.06.08.104.105l9.24 5.368a.284.284 0 0 0 .286 0l8.953-5.202a.288.288 0 0 0 0-.498Z" />
  <path fill="#D1D1D1"
    d="m9.954 18.334 3.183 1.85 5.913 3.434 9.486-5.511a.289.289 0 0 0-.104-.105l-9.24-5.368a.284.284 0 0 0-.285 0l-6.093 3.54-2.86 1.662a.289.289 0 0 0 0 .498ZM.038 34.664c.025.042.06.079.104.105l9.24 5.367a.284.284 0 0 0 .286 0l8.953-5.201a.288.288 0 0 0 0-.498l-9.096-5.285-9.487 5.512Z" />
  <path fill="#fff"
    d="M136.085 31.828H135V8.455h2.142v21.123h13.412v2.25h-14.469ZM164.011 8.192l10.796 23.636h-2.226l-2.421-5.113h-12.354l-2.337 5.113h-2.254l10.796-23.636Zm-5.176 16.274h10.268L163.9 13.364l-5.065 11.102ZM179.072 31.828h-1.892V8.455h9.933c.807 0 1.614.146 2.365.468a7.063 7.063 0 0 1 1.976 1.344c.584.584 1.057 1.256 1.363 2.015.362.79.529 1.636.529 2.484 0 .847-.167 1.694-.529 2.483-.334.818-.89 1.724-1.642 2.25a6.59 6.59 0 0 1 3.089 3.272c.362.818.557 1.665.557 2.57 0 .877-.195 1.725-.557 2.543a6.736 6.736 0 0 1-1.391 2.045 6.504 6.504 0 0 1-2.031 1.373c-.78.35-1.586.526-2.421.526h-9.349Zm.222-21.152v8.18h7.819c1.03 0 2.087-.468 2.866-1.227a3.98 3.98 0 0 0 1.224-2.863 3.98 3.98 0 0 0-1.224-2.863c-.779-.76-1.836-1.228-2.866-1.228h-7.819Zm0 10.4v8.502h9.127c1.085 0 2.17-.467 2.977-1.285a4.025 4.025 0 0 0 1.28-2.951c0-1.11-.445-2.162-1.28-2.98-.807-.818-1.892-1.286-2.977-1.286h-9.127ZM212.454 29.432c-.89.965-2.17 1.695-3.645 2.133-1.057.322-2.226.468-3.395.468-1.085 0-2.17-.146-3.227-.41a9.849 9.849 0 0 1-3.005-1.343c-.974-.643-1.725-1.432-2.254-2.338l1.808-1.168c.724 1.227 2.143 2.191 3.979 2.658 1.809.497 3.812.468 5.51-.029 1.14-.321 2.059-.876 2.699-1.548.64-.672.974-1.52.974-2.484 0-.438-.112-.818-.362-1.168-.251-.38-.668-.73-1.197-1.081-1.113-.701-2.671-1.256-4.173-1.782h-.056c-.584-.205-1.196-.41-1.753-.643-1.53-.526-3.088-1.081-4.368-1.87-.752-.467-1.308-.993-1.726-1.607a4.067 4.067 0 0 1-.751-2.395c0-1.49.529-2.834 1.531-3.915.834-.906 2.059-1.607 3.478-2.016 1.975-.585 4.257-.614 6.316-.059a8.934 8.934 0 0 1 2.866 1.256c.946.614 1.669 1.374 2.17 2.28l-1.809 1.168c-.695-1.169-2.003-2.074-3.756-2.542-1.697-.438-3.589-.438-5.203.03-1.085.32-1.948.818-2.56 1.46-.584.643-.89 1.432-.89 2.338 0 1.022.779 1.665 1.447 2.074 1.029.672 2.476 1.168 3.867 1.665.028 0 .056 0 .084.03h.055c.557.204 1.141.408 1.698.613 1.641.584 3.311 1.14 4.646 1.986.779.526 1.392 1.052 1.809 1.666.529.76.779 1.607.779 2.512 0 1.549-.556 2.951-1.586 4.061Z" />
</svg>