<svg xmlns="http://www.w3.org/2000/svg" fill="none" viewBox="0 0 24 24">
  <path fill="#000" fill-rule="evenodd"
    d="M12 2.955 4.247 7.477v9.046L12 21.045l7.753-4.522V7.477L12 2.955Zm8.64 4.005L12 1.92 3.36 6.96v10.08L12 22.08l8.64-5.04V6.96Z"
    clip-rule="evenodd" />
  <path fill="#000" fill-rule="evenodd"
    d="M12 3.385 4.678 7.693v8.614L12 20.615l7.323-4.308V7.693L12 3.385ZM20.16 7.2 12 2.4 3.84 7.2v9.6L12 21.6l8.16-4.8V7.2Z"
    clip-rule="evenodd" />
  <path fill="#000"
    d="M8.756 8.88h6.488l2.276 2.252c-.924.917-1.841 1.824-2.753 2.723-.912.899-1.836 1.8-2.771 2.705L6.48 11.133 8.756 8.88Z" />
</svg>