<svg xmlns="http://www.w3.org/2000/svg" fill="none" viewBox="0 0 24 24">
  <path fill="#E17726" d="M21.747 1.846 13.189 8.17l1.59-3.727 6.968-2.597Z" />
  <path fill="#E27625"
    d="m2.007 1.846 8.481 6.383-1.515-3.786-6.966-2.597ZM18.665 16.51l-2.277 3.474 4.876 1.34 1.397-4.738-3.996-.076ZM1.1 16.586l1.389 4.739 4.867-1.341-2.268-3.474-3.987.076Z" />
  <path fill="#E27625"
    d="m7.094 10.64-1.355 2.042 4.825.219-.16-5.186-3.31 2.926ZM16.659 10.641l-3.36-2.985-.11 5.245 4.824-.219-1.354-2.04ZM7.356 19.985l2.92-1.409-2.513-1.956-.407 3.365ZM13.476 18.576l2.912 1.409-.398-3.365-2.514 1.956Z" />
  <path fill="#D5BFB2"
    d="m16.388 19.984-2.912-1.408.237 1.89-.025.8 2.7-1.282ZM7.356 19.984l2.71 1.282-.018-.8.229-1.89-2.92 1.408Z" />
  <path fill="#233447"
    d="m10.116 15.371-2.421-.708 1.71-.784.71 1.492ZM13.637 15.371l.711-1.492 1.719.784-2.43.708Z" />
  <path fill="#CC6228"
    d="m7.356 19.984.424-3.474-2.692.076 2.268 3.398ZM15.974 16.51l.414 3.474 2.277-3.398-2.691-.076ZM18.013 12.682l-4.825.219.45 2.47.71-1.492 1.719.784 1.946-1.981ZM7.695 14.663l1.71-.784.71 1.493.45-2.471-4.826-.22 1.956 1.982Z" />
  <path fill="#E27525"
    d="m5.74 12.682 2.023 3.938-.068-1.957-1.956-1.981ZM16.067 14.663l-.076 1.957 2.022-3.938-1.946 1.981ZM10.564 12.901l-.448 2.471.567 2.918.127-3.846-.246-1.543ZM13.188 12.901l-.236 1.535.118 3.854.567-2.918-.449-2.47Z" />
  <path fill="#F5841F"
    d="m13.637 15.371-.567 2.918.406.287 2.514-1.957.077-1.956-2.43.708ZM7.695 14.663l.068 1.956 2.514 1.957.406-.287-.567-2.918-2.421-.708Z" />
  <path fill="#C0AC9D"
    d="m13.688 21.266.025-.8-.22-.186H10.26l-.212.185.017.801-2.709-1.282.948.776 1.922 1.324h3.293l1.93-1.324.94-.776-2.701 1.282Z" />
  <path fill="#161616"
    d="m13.476 18.576-.406-.287h-2.387l-.406.287-.229 1.889.212-.186h3.233l.22.186-.236-1.89Z" />
  <path fill="#763E1A"
    d="m22.11 8.583.72-3.49-1.083-3.247-8.27 6.113 3.182 2.682 4.495 1.307.99-1.155-.431-.312.685-.624-.524-.405.685-.523-.449-.346ZM.923 5.092l.728 3.491-.466.346.695.523-.525.405.685.624-.431.312.99 1.155 4.495-1.307 3.183-2.682-8.27-6.113L.923 5.092Z" />
  <path fill="#F5841F"
    d="m21.154 11.949-4.495-1.307 1.354 2.04-2.023 3.938 2.675-.034h3.996l-1.507-4.637ZM7.094 10.642l-4.495 1.307-1.498 4.638h3.987l2.675.033-2.024-3.938 1.355-2.04ZM13.188 12.901l.288-4.941 1.304-3.517H8.973l1.304 3.517.287 4.941.11 1.552.01 3.836h2.386l.009-3.836.11-1.552Z" />
</svg>