<svg xmlns="http://www.w3.org/2000/svg" fill="none" viewBox="0 0 25 24">
  <mask id="a" width="25" height="24" x="0" y="0" maskUnits="userSpaceOnUse" style="mask-type:alpha">
    <path fill="#D9D9D9" d="M.5 0h24v24H.5z" />
  </mask>
  <g mask="url(#a)">
    <path fill="#1E232A" fill-rule="evenodd"
      d="M4.024 18.475A3.373 3.373 0 0 0 6.499 19.5h12c.967 0 1.792-.342 2.475-1.025A3.372 3.372 0 0 0 21.999 16V8c0-.967-.342-1.792-1.025-2.475A3.372 3.372 0 0 0 18.499 4.5h-12c-.967 0-1.792.342-2.475 1.025A3.372 3.372 0 0 0 2.999 8v8c0 .967.342 1.792 1.025 2.475ZM18.499 9.25h-12c-.383 0-.742.054-1.075.162a3.09 3.09 0 0 0-.925.488V8c0-.55.196-1.02.588-1.412A1.923 1.923 0 0 1 6.499 6h12c.55 0 1.021.196 1.413.588.391.391.587.862.587 1.412v1.9a3.089 3.089 0 0 0-.925-.488 3.468 3.468 0 0 0-1.075-.162Zm-.5 5.75a1.5 1.5 0 1 0 0-3 1.5 1.5 0 0 0 0 3Z"
      clip-rule="evenodd" />
  </g>
</svg>